<?xml version="1.0" encoding="utf-8"?>
<!-- Generator: Adobe Illustrator 22.0.0, SVG Export Plug-In . SVG Version: 6.00 Build 0)  -->
<svg version="1.1" id="Layer_1" xmlns="http://www.w3.org/2000/svg" xmlns:xlink="http://www.w3.org/1999/xlink" x="0px" y="0px"
	 viewBox="0 0 1133.9 1133.9" style="enable-background:new 0 0 1133.9 1133.9;" xml:space="preserve">
<style type="text/css">
	.st0{fill:none;}
	.st1{fill:#ffffff;}
	.st2{fill:#010101;}
</style>
<g id="XMLID_71_">
	<g id="XMLID_91_">
		<g id="XMLID_93_">
			<path class="st1" id="XMLID_95_" d="M487.9,504.3c-2.1-6.5-3.8-13.3-4.8-20.5h-67.2c-1,7.2-2.7,14-4.8,20.5H487.9z"/>
			<path class="st1" id="XMLID_94_" d="M416.9,465.2H482c0.1-4.1,0.4-8.4,0.9-12.8c8.4-69.4,25.4-148.9-33.5-148.9c-58.8,0-41.8,79.5-33.5,148.9
				C416.5,456.8,416.8,461.1,416.9,465.2z"/>
		</g>
		<path class="st1" id="XMLID_92_" d="M442.4,633.4c7-41.8,22.8-71.2,36.6-97.2c2.4-4.5,4.7-8.9,7-13.2h-82.5c-13.4,28.4-32.9,55-40.2,98.4
			c-10.4,62,22.6,151.7,33.9,180.1c2.3,5.9,7.3,10.2,13.4,11.8c19.1,5,38.5,6,58.1,3.5C451.7,766.2,432.6,691.7,442.4,633.4z"/>
	</g>
	<g id="XMLID_86_">
		<g id="XMLID_88_">
			<path class="st1" id="XMLID_90_" d="M646,504.3c2.1-6.5,3.8-13.3,4.8-20.5H718c1,7.2,2.7,14,4.8,20.5H646z"/>
			<path class="st1" id="XMLID_89_" d="M717,465.2h-65.1c-0.1-4.1-0.4-8.4-0.9-12.8c-8.4-69.4-25.4-148.9,33.5-148.9
				c58.8,0,41.8,79.5,33.5,148.9C717.3,456.8,717.1,461.1,717,465.2z"/>
		</g>
		<path class="st1" id="XMLID_87_" d="M691.5,633.4c-7-41.8-22.8-71.2-36.6-97.2c-2.4-4.5-4.8-8.9-7-13.2h82.5c13.4,28.4,32.9,55,40.2,98.4
			c10.4,62-22.6,151.7-33.9,180.1c-2.3,5.9-7.3,10.2-13.4,11.8c-19.1,5-38.5,6-58.1,3.5C682.1,766.2,701.3,691.7,691.5,633.4z"/>
	</g>
	<g id="XMLID_72_">
		<path class="st1" id="XMLID_85_" d="M611.7,501.1c-2.5-7.6-4.4-15.5-5.6-23.9h-78.3c-1.2,8.4-3.1,16.3-5.6,23.9H611.7z"/>
		<path class="st1" id="XMLID_74_" d="M529,455.5h75.8c0.1-4.8,0.5-9.7,1.1-14.9c9.7-80.9,29.6-173.5-39-173.5c-68.5,0-48.7,92.6-39,173.5
			C528.6,445.8,528.9,450.7,529,455.5z"/>
		<path class="st1" id="XMLID_73_" d="M667.3,637.5c-8.5-50.6-31.3-81.6-46.8-114.7H513.4c-15.6,33.1-38.3,64.1-46.8,114.7
			c-12.2,72.2,26.3,176.8,39.5,209.9c2.7,6.8,8.6,11.9,15.7,13.8c29.6,7.7,59.8,7.4,90.5-0.3c7.1-1.8,12.9-7,15.6-13.8
			C641.2,813.8,679.5,709.5,667.3,637.5z"/>
	</g>
</g>
</svg>
