<?xml version="1.0" encoding="utf-8"?>
<!-- Generator: Adobe Illustrator 22.0.0, SVG Export Plug-In . SVG Version: 6.00 Build 0)  -->
<svg version="1.1" id="Layer_1" xmlns="http://www.w3.org/2000/svg" xmlns:xlink="http://www.w3.org/1999/xlink" x="0px" y="0px"
	 viewBox="0 200 1133.9 733.9" xml:space="preserve">
<style type="text/css">
	.st0{fill:none;}
	.st1{fill:#ffffff;}
	.st2{fill:#010101;}
</style>
<g>
	<path class="st1" d="M450.2,820C450.2,820,450.2,820,450.2,820C450.2,820,450.3,820,450.2,820C450.3,820,450.2,820,450.2,820z"/>
	<path class="st1" d="M565.5,349.1c0.2,0.1,0.3,0.1,0.5,0.2C565.8,349.2,565.7,349.1,565.5,349.1z"/>
	<path class="st1" d="M561.1,347.8c0.2,0,0.3,0.1,0.5,0.1C561.4,347.9,561.3,347.9,561.1,347.8z"/>
	<path class="st1" d="M556.9,347.1c0.1,0,0.3,0,0.4,0.1C557.1,347.1,557,347.1,556.9,347.1z"/>
	<path class="st1" d="M544.4,347.3c0.7-0.2,1.4-0.3,2-0.4C545.8,347,545.1,347.2,544.4,347.3z"/>
	<path class="st1" d="M547.1,346.8c0.5-0.1,1-0.1,1.5-0.2C548.1,346.7,547.6,346.8,547.1,346.8z"/>
	<path class="st1" d="M542.2,348C542.2,348,542.2,348,542.2,348C542.2,348,542.2,348,542.2,348C542.2,348,542.2,348,542.2,348z"/>
	<path class="st1" d="M549.2,346.6c0.7,0,1.4-0.1,2.1,0C550.6,346.6,549.9,346.6,549.2,346.6z"/>
	<path class="st1" d="M553,346.7c0.1,0,0.2,0,0.4,0C553.2,346.7,553.1,346.7,553,346.7z"/>
	<path class="st1" d="M569.9,350.9c0.2,0.1,0.3,0.2,0.5,0.2C570.3,351,570.1,351,569.9,350.9z"/>
	<path class="st1" d="M586.7,376.9c0,0.3,0,0.6,0.1,0.9C586.7,377.5,586.7,377.2,586.7,376.9z"/>
	<path class="st1" d="M574.2,353.4c0.2,0.1,0.3,0.2,0.4,0.3C574.5,353.6,574.3,353.5,574.2,353.4z"/>
	<path class="st1" d="M581.5,360.8c0.1,0.2,0.2,0.3,0.3,0.5C581.7,361.1,581.6,361,581.5,360.8z"/>
	<path class="st1" d="M578.1,356.6c0.1,0.1,0.3,0.3,0.4,0.4C578.4,356.9,578.2,356.8,578.1,356.6z"/>
	<polygon class="st1" points="450.2,820 450.2,820 450.2,820 	"/>
	<polygon class="st1" points="450.2,820 450.2,820 450.2,820 	"/>
	<path class="st1" d="M556.7,838.7c1.2-0.5,2.2-1.3,3.2-2c-4.7-0.6-9.3-1.4-14-2.4l-4.4,2c0,0,0,0,0,0c0,0-0.1,0-0.1,0l-6.1,2.8
		c3.8,1.5,7.7,2.9,11.5,4.1l7.6-3.5L556.7,838.7z"/>
	<polygon class="st1" points="368.3,661.2 368.3,661.2 368.3,661.2 	"/>
	<path class="st1" d="M372.7,662.4c0.1,0,0.2,0.1,0.3,0.1C372.9,662.4,372.8,662.4,372.7,662.4z"/>
	<path class="st1" d="M364.3,660.3C364.3,660.3,364.3,660.3,364.3,660.3C364.3,660.3,364.3,660.3,364.3,660.3z"/>
	<path class="st1" d="M383.8,666c0.1,0,0.1,0,0.2,0.1C383.9,666.1,383.8,666,383.8,666z"/>
	<path class="st1" d="M329,655.7c0.3,0,0.6,0,0.9,0.1C329.6,655.7,329.3,655.7,329,655.7z"/>
	<path class="st1" d="M347.7,657.4c0.4,0,0.7,0.1,1.1,0.1C348.4,657.4,348.1,657.4,347.7,657.4z"/>
	<polygon class="st1" points="339.8,656.5 339.8,656.5 339.8,656.5 	"/>
	<path class="st1" d="M776.3,684.9c-0.8,1.9-1.6,3.8-2.4,5.7C774.7,688.7,775.6,686.8,776.3,684.9L776.3,684.9z"/>
	<path class="st1" d="M772.2,694.4c0.3-0.6,0.5-1.2,0.8-1.8C772.7,693.2,772.4,693.8,772.2,694.4z"/>
	<path class="st1" d="M585.4,424.5c0,1.3-0.1,2.5-0.1,3.8C585.3,427,585.3,425.7,585.4,424.5z"/>
	<path class="st1" d="M585.6,418.7c0,0.9-0.1,1.8-0.1,2.7C585.5,420.5,585.5,419.6,585.6,418.7z"/>
	<path class="st1" d="M585.7,456.3c0.2,1.9,0.4,3.8,0.6,5.6C586,460.1,585.8,458.2,585.7,456.3z"/>
	<path class="st1" d="M585,441.5c0-1.2,0-2.5,0-3.7C585,439,585,440.3,585,441.5z"/>
	<path class="st1" d="M585.3,450.4c0.1,1.3,0.2,2.6,0.2,3.9C585.4,453,585.3,451.7,585.3,450.4z"/>
	<path class="st1" d="M585.2,431.2c0,1.3-0.1,2.5-0.1,3.8C585.1,433.7,585.1,432.4,585.2,431.2z"/>
	<path class="st1" d="M585.1,444.2c0,1.3,0.1,2.5,0.1,3.7C585.1,446.7,585.1,445.5,585.1,444.2z"/>
	<path class="st1" d="M410.1,521.5L410.1,521.5c1.8,7.3,3.6,14.7,5.4,22.1C413.7,536.2,411.9,528.7,410.1,521.5z"/>
	<g>
		<path class="st1" d="M191.7,614l-22.2,2.1l21.2,6.7C190.7,619.8,191.1,616.8,191.7,614z"/>
		<path class="st1" d="M278.7,751.6l24.4-13.8c-3.4-5.9-6.2-11.7-8.7-17.2l-107.5,60.8l136.9-15.6c-5.4-5.7-10.1-11.7-14.2-17.8
			L278.7,751.6z"/>
		<path class="st1" d="M518.8,391.9c-4.8-15.1-1.1-25.4,5.2-32.4l-40.2-92.4l1.8,208.3L332.1,334.7l86.4,189.6l-8.4-2.8
			c1.8,7.3,3.6,14.7,5.4,22.1v0l38.8,13l-65.5-143.8l116.5,106.7l-1.4-158l21.3,49C522.9,404.2,520.7,397.9,518.8,391.9z"/>
		<path class="st1" d="M801.8,334.7L648.2,475.4l1.8-208.3l-64.3,147.8c-0.1,1.3-0.1,2.5-0.2,3.8c0,0.9-0.1,1.8-0.1,2.7
			c0,1-0.1,2-0.1,3.1c0,1.3-0.1,2.5-0.1,3.8c0,1-0.1,2-0.1,2.9c0,1.3-0.1,2.5-0.1,3.8c0,1,0,1.9,0,2.8c0,1.3,0,2.5,0,3.7
			c0,0.9,0,1.8,0,2.7c0,1.3,0.1,2.5,0.1,3.7c0,0.8,0.1,1.7,0.1,2.5c0.1,1.3,0.2,2.6,0.2,3.9c0,0.7,0.1,1.3,0.1,2
			c0.2,1.9,0.4,3.8,0.6,5.6l43.6-100.4l-1.4,158L745,412.8l-65.5,143.8l75.9-25.4c3.7-6.8,7-14.9,10.1-23.7l-50.2,16.8L801.8,334.7z
			"/>
		<path class="st1" d="M913,458.2l-64.1,21.5c-1.3,2.9-3.1,5.9-5.6,9c-4.6,5.9-9.8,12-15,18.1l1.1-0.4l-3.2,2.9v0
			c-18.6,21.8-37.7,43.8-39.8,60.9L913,458.2z"/>
		<path class="st1" d="M844.5,745.6l10.7,6l-12.6-1.4c-2.6,6-5.7,12.2-9.4,18.3l113.9,13l-95.9-54.2
			C849.3,732.9,847.1,739.1,844.5,745.6z"/>
		<path class="st1" d="M964.3,616.2l-25.7-2.5c1.4,2.6,2.7,5.9,3.6,9.4L964.3,616.2z"/>
		<path class="st1" d="M890.5,609.1l-103-9.9c0.3,6,0.6,12.5,0.5,19.4l80.2,7.7l-83,26.2c-1.2,7.1-2.9,14.4-5.2,21.8l77.4-24.4
			C868.4,637.5,879.6,621.8,890.5,609.1z"/>
		<path class="st1" d="M351.7,548.2l-47.2-41.8l32.7,10.9c-0.1-7.2,2.7-13.3,6.3-18.2l-122.6-41l156,138l-126,12.1
			c1.4,1.4,2.7,2.9,4.1,4.3c0.3,0.3,0.6,0.6,0.8,0.9c1.3,1.4,2.6,2.8,3.9,4.2c0.9,0.9,1.7,1.8,2.6,2.7c0.5,0.5,1,1,1.4,1.5
			c1.3,1.4,2.6,2.7,3.9,4.1L393.3,614C387.6,595,368.1,571,351.7,548.2L351.7,548.2z"/>
	</g>
	<path class="st1" d="M255.8,613.6c1.3,1.4,2.6,2.8,3.9,4.2C258.4,616.3,257.1,615,255.8,613.6z"/>
	<path class="st1" d="M255,612.7c-1.4-1.5-2.7-2.9-4.1-4.3l0,0C252.3,609.8,253.6,611.2,255,612.7z"/>
	<path class="st1" d="M262.3,620.5c0.5,0.5,1,1,1.4,1.5C263.3,621.5,262.8,621,262.3,620.5z"/>
	<path class="st1" d="M585.1,443.3c0,2,0.1,3.9,0.2,5.8C585.1,447.2,585.1,445.3,585.1,443.3z"/>
	<path class="st1" d="M586.5,396.9C586.5,396.9,586.5,396.9,586.5,396.9C586.5,396.9,586.5,396.9,586.5,396.9
		C586.5,396.9,586.5,396.9,586.5,396.9z"/>
	<path class="st1" d="M585.2,430.3c0,1.7-0.1,3.3-0.1,5C585.1,433.6,585.1,432,585.2,430.3z"/>
	<path class="st1" d="M586.1,406.8C586.1,406.8,586.1,406.8,586.1,406.8C586.1,406.8,586.1,406.9,586.1,406.8
		C586.1,406.9,586.1,406.8,586.1,406.8z"/>
	<path class="st1" d="M585.7,456.6c0.2,1.8,0.4,3.6,0.6,5.3C586,460.2,585.9,458.4,585.7,456.6z"/>
	<path class="st1" d="M585,442.4c0-1.7,0-3.5,0-5.2C585,438.9,585,440.6,585,442.4z"/>
	<path class="st1" d="M585.3,450.7c0.1,1.5,0.2,2.9,0.3,4.3C585.5,453.6,585.4,452.1,585.3,450.7z"/>
	<path class="st1" d="M529.1,501.5c-10.9,24.2-29.2,64.8-23.3,113.4c2.5,20.6,5.7,35,13,52c2.6,3.4,5,6.9,7.4,10.6
		c0.2,0.4,0.5,0.8,0.7,1.2c0.9,1.4,1.8,2.9,2.6,4.4c0.3,0.5,0.6,1,0.8,1.4c1.1,1.9,2.1,3.8,3.1,5.8c1,1.9,1.9,3.7,2.7,5.5
		c0.2,0.3,0.3,0.7,0.5,1.1c0.9,1.8,1.7,3.6,2.5,5.3c0,0.1,0.1,0.2,0.1,0.3c0.8,1.7,1.5,3.4,2.2,5.1c0.1,0.2,0.1,0.3,0.2,0.5
		c0.7,1.7,1.4,3.5,2.1,5.2c0,0.1,0,0.1,0.1,0.2c0.6,1,1.2,1.9,1.8,2.9c5.8,9.7,10.9,18.3,15.1,25.7c3.2,5.7,9.9,8.9,16.6,7.9
		l33.9-5.2c0.4-2.7,0.7-5.6,1.1-8.6c0-0.1,0-0.2,0-0.2l-5.6,0.9l-30.7,4.7c-3.2,0.5-6.4-0.9-7.9-3.6c-3.9-7-8.9-15.5-15.2-25.9
		c-28.8-47.6-34.5-63.3-38.8-98.2c-0.2-1.7-0.4-3.4-0.5-5.1c0-0.4-0.1-0.8-0.1-1.2c0,0,0,0,0,0c-0.1-1.1-0.2-2.2-0.2-3.3
		c0,0,0,0,0,0c0-0.2,0-0.4,0-0.7c-0.1-1.9-0.2-3.8-0.2-5.6c0,0,0,0,0-0.1v0c0-3.1,0-6.1,0.1-9c0-0.6,0.1-1.2,0.1-1.8c0,0,0,0,0,0
		c0.1-1.5,0.2-2.9,0.3-4.3c0-0.1,0-0.1,0-0.2v0c0.1-0.7,0.1-1.5,0.2-2.2c0,0,0,0,0,0c0,0,0,0,0,0c0.2-2,0.4-3.9,0.7-5.8c0,0,0,0,0,0
		c0.1-0.9,0.3-1.8,0.4-2.7l0,0c0.1-0.4,0.1-0.9,0.2-1.3c0,0,0,0,0,0c0.1-0.9,0.3-1.8,0.5-2.8c0,0,0,0,0,0c0.1-0.3,0.1-0.7,0.2-1
		c0,0,0,0,0,0c0,0,0,0,0,0c0.4-2.3,0.9-4.5,1.3-6.7c0,0,0,0,0-0.1c0.5-2.2,1-4.4,1.6-6.5c7.1-27.7,19.2-49.4,24.1-62.4
		c6.7-17.7-6.6-50-17.7-80.6c0,0,0,0,0,0c-2.3-6.3-4.5-12.6-6.4-18.7c-9-28.2,11.9-39.7,23.4-43.8c0,0,0,0,0,0c0,0,0,0,0,0
		c0,0,0,0,0,0c0.7-0.3,1.5-0.5,2.2-0.7c0.7-0.2,1.4-0.3,2-0.4c0.2,0,0.4-0.1,0.6-0.1c0.5-0.1,1-0.1,1.5-0.2c0.2,0,0.4,0,0.6,0
		c0.7,0,1.4-0.1,2.1,0c0,0,0,0,0,0c0.5,0,1.1,0,1.6,0.1c0.1,0,0.2,0,0.4,0c1.1,0.1,2.3,0.2,3.5,0.4c0.1,0,0.3,0,0.4,0.1
		c1.2,0.2,2.5,0.4,3.8,0.7c0.2,0,0.3,0.1,0.5,0.1c1.3,0.3,2.6,0.7,3.9,1.1c0.2,0.1,0.3,0.1,0.5,0.2c1.3,0.5,2.6,1,3.9,1.6
		c0.2,0.1,0.3,0.2,0.5,0.2c1.3,0.7,2.6,1.4,3.8,2.3c0.2,0.1,0.3,0.2,0.4,0.3c1.2,0.9,2.4,1.9,3.5,3c0.1,0.1,0.3,0.3,0.4,0.4
		c1.1,1.1,2.1,2.4,3,3.7c0.1,0.2,0.2,0.3,0.3,0.5c0.4,0.7,0.9,1.4,1.3,2.2c0.3,0.6,0.6,1.2,0.8,1.8c0.3,0.6,0.5,1.3,0.8,1.9
		c0.7,2,1.3,4.1,1.6,6.5c0.2,1,0.3,2.1,0.4,3.3c0,0.3,0,0.6,0.1,0.9c0.1,1.2,0.1,2.3,0.1,3.6c0,1.7,0,3.3-0.1,5
		c-0.1,3.5-0.2,7-0.3,10.5c0,0,0,0,0,0c0,0,0,0,0,0c-0.1,3.3-0.3,6.5-0.4,9.8c0,0,0,0,0,0l0,0.1c0,0.3,0,0.5,0,0.8c0,0,0,0,0,0.1
		c-0.1,1.9-0.2,3.8-0.3,5.6c0,0.8-0.1,1.6-0.1,2.3c-0.1,1.7-0.1,3.4-0.2,5.1c0,0.6,0,1.1-0.1,1.7c-0.1,2.1-0.2,4.3-0.2,6.4
		c0,0.5,0,0.9,0,1.4c0,1.7-0.1,3.3-0.1,5c0,0.6,0,1.2,0,1.9c0,1.8,0,3.5,0,5.2c0,0.3,0,0.6,0,1c0,2,0.1,3.9,0.2,5.8
		c0,0.5,0.1,1,0.1,1.5c0.1,1.5,0.2,2.9,0.3,4.3c0,0.5,0.1,1.1,0.1,1.6c0.2,1.8,0.4,3.6,0.6,5.3v0c0.9,6.6,2.4,12.5,4.8,17.1
		c0.8,1.5,1.7,3,2.7,4.2c0.5,0.6,0.9,1.2,1.4,1.8c0.2,0.2,0.4,0.5,0.6,0.7c0.3,0.4,0.7,0.8,1,1.2c0.2,0.3,0.5,0.6,0.7,0.8
		c0.3,0.4,0.7,0.8,1,1.2c0.3,0.3,0.5,0.6,0.8,0.9c0.4,0.4,0.7,0.8,1.1,1.2c0.3,0.3,0.6,0.7,0.9,1c0.4,0.4,0.8,0.9,1.2,1.3
		c0.5,0.6,1,1.1,1.5,1.7c0.4,0.4,0.8,0.9,1.2,1.3c0.4,0.5,0.9,1,1.3,1.4c0.3,0.4,0.7,0.8,1,1.1c0.4,0.5,0.8,0.9,1.3,1.4
		c0.4,0.4,0.7,0.8,1.1,1.2c0.4,0.5,0.8,1,1.3,1.4c0.4,0.4,0.7,0.8,1.1,1.3c0.4,0.5,0.9,1,1.3,1.5c0.4,0.4,0.7,0.9,1.1,1.3
		c0.4,0.5,0.9,1.1,1.4,1.6c0.4,0.4,0.7,0.9,1.1,1.3c0.5,0.6,0.9,1.1,1.4,1.7c0.4,0.5,0.7,0.9,1.1,1.4c0.5,0.6,0.9,1.2,1.4,1.8
		c0.4,0.5,0.7,0.9,1.1,1.4c0.5,0.6,1,1.3,1.5,1.9c0.3,0.5,0.7,0.9,1,1.3c0.5,0.7,1.1,1.5,1.6,2.2c0.3,0.4,0.6,0.8,0.9,1.2
		c0.8,1.2,1.7,2.3,2.5,3.5c1.1,1.5,2.1,3.1,3.2,4.7c0.3,0.4,0.5,0.8,0.8,1.2c1.1,1.6,2.1,3.3,3.1,5c1.5,2.5,3.1,5.1,4.5,7.8
		c1.5,2.7,2.9,5.5,4.2,8.3c0.9,1.9,1.8,3.8,2.6,5.8c0.2,0.5,0.4,1,0.6,1.5c0.8,2,1.6,4,2.4,6.1c1.1,3.1,2.2,6.3,3.2,9.5
		c0.6,2.2,1.2,4.4,1.8,6.6c0.1,0.6,0.3,1.1,0.4,1.7c0.5,2.3,1,4.6,1.5,6.9c0.2,1.1,0.4,2.3,0.6,3.4c0.1,0.4,0.1,0.7,0.2,1.1
		c0.1,0.7,0.3,1.5,0.4,2.2c0.1,0.4,0.1,0.8,0.2,1.3c0.1,0.7,0.2,1.3,0.3,1.9c0.1,0.4,0.1,0.9,0.2,1.3c0.1,0.6,0.2,1.2,0.3,1.8
		c0-0.1,0-0.1,0-0.2c2.4-2.7,4.9-5.3,7.4-7.8c-0.4-2.1-0.8-4.3-1.2-6.6c-5.8-30.7-19.9-55.3-34-74.2c-1.3-1.7-2.6-3.4-3.9-5.1
		c-6.7-8.5-13.2-15.8-18.6-21.8c-3.8-4.3-7.1-8-9.5-11c-4.9-6.3-6.6-18.7-6.9-33.1c-0.2-10.9,0.3-23,0.9-34.4
		c0.4-9.7,0.9-19.8,0.9-29.2c0.1-26.2-16.3-42.4-43.5-43.3l-0.3,0c-2.1-0.1-4.1,0.1-6.2,0.4c-2,0.3-4.1,0.8-6,1.5l-0.3,0.1
		c-17.6,6.3-28.1,17.8-30.5,32.3c-1.1,6.8-0.5,14.2,2,22.2c2.8,8.9,6.3,18.4,9.7,27.5c9.1,24.9,19.5,53,14.6,66.1
		C533.5,491.7,531.5,496.3,529.1,501.5z"/>
	<path class="st1" d="M626.3,522c0.3,0.4,0.6,0.8,0.9,1.2C626.9,522.7,626.6,522.4,626.3,522z"/>
	<path class="st1" d="M623.6,518.4c0.3,0.4,0.7,0.9,1,1.3C624.3,519.3,624,518.8,623.6,518.4z"/>
	<path class="st1" d="M616,508.9c0.4,0.4,0.7,0.9,1.1,1.3C616.8,509.8,616.4,509.3,616,508.9z"/>
	<path class="st1" d="M604.1,495.2c0.4,0.4,0.8,0.9,1.2,1.3C604.9,496.1,604.5,495.6,604.1,495.2z"/>
	<path class="st1" d="M599.4,489.9c0.4,0.4,0.7,0.8,1.1,1.2C600.1,490.7,599.8,490.3,599.4,489.9z"/>
	<path class="st1" d="M621.1,515.1c0.4,0.5,0.7,0.9,1.1,1.4C621.8,516,621.4,515.5,621.1,515.1z"/>
	<path class="st1" d="M597.6,487.8c0.3,0.4,0.7,0.8,1,1.2C598.2,488.6,597.9,488.2,597.6,487.8z"/>
	<path class="st1" d="M595.8,485.8c0.3,0.4,0.7,0.8,1,1.2C596.5,486.6,596.2,486.2,595.8,485.8z"/>
	<path class="st1" d="M593.8,483.3c0.5,0.6,0.9,1.2,1.4,1.8C594.7,484.5,594.3,483.9,593.8,483.3z"/>
	<path class="st1" d="M601.4,492.1c0.4,0.4,0.8,0.9,1.2,1.3C602.2,493,601.8,492.6,601.4,492.1z"/>
	<path class="st1" d="M618.5,511.9c0.4,0.5,0.7,0.9,1.1,1.4C619.3,512.8,618.9,512.4,618.5,511.9z"/>
	<path class="st1" d="M613.6,506c0.4,0.4,0.7,0.9,1.1,1.3C614.3,506.9,613.9,506.4,613.6,506z"/>
	<path class="st1" d="M611.2,503.2c0.4,0.4,0.7,0.8,1.1,1.3C611.9,504,611.5,503.6,611.2,503.2z"/>
	<path class="st1" d="M606.6,498c0.3,0.4,0.7,0.8,1,1.1C607.2,498.7,606.9,498.3,606.6,498z"/>
	<path class="st1" d="M608.8,500.5c0.4,0.4,0.7,0.8,1.1,1.2C609.6,501.3,609.2,500.9,608.8,500.5z"/>
	<polygon class="st1" points="525.2,410.5 525.2,410.5 525.2,410.5 	"/>
	<path class="st1" d="M585,438.3c0-2.8,0.1-5.7,0.1-8.6C585.1,432.6,585,435.4,585,438.3z"/>
	<g>
		<path class="st1" d="M540.7,455.4l3.8-0.6l26.4-4.1l14.4-2.2l0,0l0,0c-0.2-5-0.2-10.2-0.1-15.5c0-0.6,0-1.1,0-1.7
			c0-1.4,0.1-2.8,0.1-4.2c0-0.2,0-0.5,0-0.7c0-0.1,0-0.1,0-0.2l-14.4,2.2l-35.5,5.5l-1.6,0.2l0,0
			C536.4,441.4,538.8,448.6,540.7,455.4L540.7,455.4z"/>
		<path class="st1" d="M599.2,489.7c-0.1-0.1-0.2-0.2-0.3-0.3c-0.5-0.6-1-1.2-1.5-1.7c-0.1-0.2-0.3-0.3-0.4-0.5
			c-0.5-0.5-0.9-1.1-1.3-1.6c-0.1-0.2-0.3-0.3-0.4-0.5c-0.5-0.6-1-1.3-1.5-1.9c-0.6-0.7-1.1-1.5-1.6-2.4l0,0c0-0.1-0.1-0.2-0.1-0.2
			c-0.5-0.9-1-1.8-1.4-2.7c0,0,0,0,0,0l0,0c-0.9-2-1.7-4.1-2.3-6.5l0,0l-6.5,1l-7.8,1.2l-19.9,3.1l-9.4,1.4l0,0c0,1.1,0,2.2,0,3.3
			c0,0.2,0,0.3,0,0.5c0,0.9-0.1,1.8-0.2,2.7c-0.1,0.5-0.1,0.9-0.2,1.4c-0.1,0.6-0.2,1.3-0.3,1.9c-0.2,1.1-0.5,2.2-0.9,3.2
			c-0.3,0.7-0.6,1.5-0.9,2.2c-0.1,0.2-0.2,0.4-0.2,0.6c-0.2,0.6-0.5,1.2-0.8,1.8c-0.1,0.2-0.2,0.4-0.3,0.6c-0.3,0.7-0.6,1.4-0.9,2.1
			c-0.1,0.1-0.1,0.3-0.2,0.4c-0.4,0.8-0.7,1.7-1.1,2.5h0l24.6-3.8h0l8.2-1.3l15.4-2.4l14.4-2.2l0,0l0,0
			C600.4,491.1,599.8,490.4,599.2,489.7z"/>
	</g>
	<path class="st1" d="M770.2,698.4c1-2,2-4,2.9-6C772.2,694.4,771.2,696.4,770.2,698.4z"/>
	<path class="st1" d="M773.8,690.7c0.7-1.6,1.4-3.3,2.1-4.9C775.3,687.4,774.6,689.1,773.8,690.7z"/>
	<path class="st1" d="M754.8,724.4c-0.9,1.2-1.8,2.4-2.7,3.6c-1.1,1.5-2.3,2.9-3.5,4.4c3.4-4.2,6.5-8.4,9.4-12.8
		C757,721.2,755.9,722.8,754.8,724.4z"/>
	<path class="st1" d="M746.1,735.3c0.5-0.5,0.9-1,1.3-1.6C747,734.3,746.6,734.8,746.1,735.3z"/>
	<path class="st1" d="M758.9,718.3c0.4-0.6,0.8-1.2,1.1-1.8C759.7,717.1,759.3,717.7,758.9,718.3z"/>
	<path class="st1" d="M664.7,806c-1.8-2.1-2.1-5-0.9-7.3c1.7-3,3.5-6.5,5.5-10.3l-2.6-1.5l-3.6-2.1c-1.5,2.9-3,5.6-4.4,8.2l4.4,19.7
		c1.5-1,3.1-2.1,4.6-3.1L664.7,806z"/>
	<path class="st1" d="M944.1,608.7l-0.1-0.2c-0.9-1.5-1.9-3-3-4.3c-1.1-1.3-2.4-2.6-3.8-3.7l-0.2-0.2c-18-14.4-37.4-13-51.8,3.8
		c-5.2,6-10.4,12.7-15.5,19.2c-0.7,0.9-1.5,1.9-2.2,2.8l0.8,0.1l-1.2,0.4c-13.2,16.8-27.6,34.5-38.5,36.7c-3.2,0.6-7.4,1.2-12.2,1.8
		c-9.6,1.3-22,2.9-35.6,6.5c-1.3,4.3-2.8,8.7-4.5,13.1c0.6-1.6,1.2-3.2,1.8-4.9c21.6-6.2,41-7.2,51.9-9.4
		c18.9-3.7,40.3-37.8,60.6-61.6c16.3-19,33.9-9.2,42-2.7c0,0,0,0,0,0c2,1.6,3.8,3.6,5,5.9c0,0,0,0,0,0c5.1,9,12.1,27.9-9.2,41
		c-26.6,16.4-63.6,32.2-70.2,50.4c-3.3,9.1-6.8,24.7-13.9,42c-0.6,1.5-1.3,3.1-2,4.6v0c-7.1,16-17.3,33.1-33.5,47.9
		c-14.3,13.1-24.5,20.5-42.3,28.2h0c-5.7,2.5-12.2,5-19.9,7.7h0c-5,1.8-10.6,3.7-16.8,5.7c-9.8,3.2-17.7,5.9-24.1,8.2
		c-2.4,0.9-5.3,0.1-7-2l-17.1-20l-2.8-3.3c-2,1.4-4,2.7-6.1,4l20.4,23.9c3.7,4.4,9.8,6,15,4.1c6.8-2.4,14.8-5.2,23.9-8.2
		c8.6-2.8,16-5.4,22.6-7.8c6.1-2.2,11.4-4.4,16.2-6.5c17.3-7.7,28.2-15.5,42.8-28.9c17.7-16.2,28.8-35.1,36.1-52.4
		c0.3-0.6,0.5-1.2,0.8-1.9c4.9-11.8,8.1-22.8,10.7-31.4c1.4-4.7,2.6-8.7,3.7-11.8c4.1-11.1,26.2-23.5,45.8-34.4
		c7.2-4,14.7-8.2,21.4-12.3C951.2,647.7,955.6,628.8,944.1,608.7z"/>
	<path class="st1" d="M762.4,712.6c-2.5,4.2-4.9,8-7.6,11.7C757.5,720.6,760,716.8,762.4,712.6z"/>
	<path class="st1" d="M748.8,732.2c0,0.1-0.1,0.1-0.1,0.2c0,0,0,0,0,0C748.7,732.3,748.7,732.3,748.8,732.2z"/>
	<path class="st1" d="M748.8,732.2c1.1-1.4,2.3-2.8,3.3-4.2C751,729.4,749.9,730.8,748.8,732.2z"/>
	<path class="st1" d="M747.5,733.8c-0.2,0.3-0.5,0.6-0.8,0.9C747,734.4,747.2,734.1,747.5,733.8
		C747.5,733.8,747.5,733.8,747.5,733.8z"/>
	<path class="st1" d="M746.7,734.7c-0.2,0.2-0.4,0.5-0.6,0.7c0,0,0,0,0,0C746.3,735.1,746.5,734.9,746.7,734.7z"/>
	<path class="st1" d="M743,738.8c1.1-1.2,2.1-2.3,3.1-3.5c0,0,0,0,0,0C745.1,736.5,744.1,737.7,743,738.8z"/>
	<path class="st1" d="M748.6,732.4C748.6,732.4,748.6,732.4,748.6,732.4c-0.4,0.5-0.8,0.9-1.2,1.4c0,0,0,0,0,0
		C747.9,733.3,748.3,732.8,748.6,732.4z"/>
	<path class="st1" d="M752.1,728c0.9-1.2,1.8-2.4,2.7-3.6C753.9,725.6,753,726.8,752.1,728z"/>
	<path class="st1" d="M867.5,626.2c-0.1,0.1-0.2,0.3-0.3,0.4l1.2-0.4L867.5,626.2z"/>
	<g>
		<path class="st1" d="M879.6,681.8c5-3.3,10.4-6.6,16.1-9.9l0,0C890,675.2,884.5,678.5,879.6,681.8L879.6,681.8z"/>
		<path class="st1" d="M867,638.5c-4.1,5.1-8.2,10-12.3,14.4l0,0C858.8,648.5,862.9,643.6,867,638.5L867,638.5z"/>
		<path class="st1" d="M854.8,652.9l24.8,29c4.9-3.3,10.4-6.6,16.1-9.9L867,638.5C862.9,643.6,858.8,648.5,854.8,652.9z"/>
		<path class="st1" d="M820.7,671.9L820.7,671.9c2.7-0.4,5.1-0.7,7.3-1.1C825.8,671.2,823.4,671.5,820.7,671.9z"/>
		<path class="st1" d="M855.5,712.5c0.2-0.8,0.5-1.6,0.7-2.3C856,711,855.7,711.7,855.5,712.5L855.5,712.5z"/>
		<path class="st1" d="M858.4,703.5c-0.2,0.6-0.4,1.3-0.7,1.9C857.9,704.8,858.2,704.1,858.4,703.5z"/>
		<path class="st1" d="M857.5,706c-0.2,0.5-0.3,1-0.5,1.6C857.2,707,857.4,706.5,857.5,706z"/>
		<path class="st1" d="M856.8,708.1c-0.2,0.6-0.4,1.2-0.6,1.9C856.5,709.3,856.7,708.7,856.8,708.1z"/>
		<path class="st1" d="M864.4,694.3L864.4,694.3c-2,2.2-3.7,4.4-4.9,6.7C860.7,698.7,862.4,696.5,864.4,694.3z"/>
		<path class="st1" d="M832.4,669.8c-0.8,0.3-1.5,0.5-2.3,0.6c-0.5,0.1-1.1,0.2-1.7,0.3c0.6-0.1,1.2-0.2,1.7-0.3
			C830.8,670.3,831.6,670.1,832.4,669.8z"/>
		<path class="st1" d="M859.3,701.3c-0.4,0.7-0.7,1.5-1,2.2C858.6,702.8,859,702.1,859.3,701.3z"/>
		<path class="st1" d="M840.1,665.9c-2.5,1.7-5,2.9-7.4,3.8C835.2,668.9,837.7,667.6,840.1,665.9L840.1,665.9z"/>
		<path class="st1" d="M840.2,665.9c-2.5,1.7-5,2.9-7.4,3.8c-0.1,0-0.2,0.1-0.4,0.1c-0.8,0.2-1.5,0.5-2.3,0.6
			c-0.5,0.1-1.1,0.2-1.7,0.3c-0.1,0-0.2,0-0.4,0.1c-2.2,0.4-4.6,0.7-7.3,1.1l34.8,40.7c0.2-0.8,0.5-1.6,0.7-2.3
			c0-0.1,0.1-0.2,0.1-0.3c0.2-0.6,0.4-1.3,0.6-1.9c0.1-0.2,0.1-0.3,0.2-0.5c0.2-0.5,0.3-1.1,0.5-1.6c0.1-0.2,0.1-0.4,0.2-0.5
			c0.2-0.7,0.4-1.3,0.7-1.9c0.3-0.7,0.6-1.5,1-2.2c0.1-0.1,0.1-0.2,0.2-0.4c1.2-2.3,2.8-4.5,4.9-6.7L840.2,665.9z"/>
	</g>
	<path class="st1" d="M776.2,685.1c0.2-0.6,0.5-1.2,0.7-1.8C776.7,684,776.4,684.5,776.2,685.1z"/>
	<path class="st1" d="M773.8,690.9c0.4-0.9,0.8-1.8,1.2-2.8C774.6,689.1,774.2,690,773.8,690.9z"/>
	<path class="st1" d="M770.2,698.4c0.9-1.7,1.7-3.5,2.5-5.2C771.9,694.9,771.1,696.6,770.2,698.4z"/>
	<path class="st1" d="M829.4,506.4l-1.1,0.4c-0.7,0.8-1.4,1.7-2.1,2.5L829.4,506.4z"/>
	<polygon class="st1" points="775.6,706.6 768.1,702.3 775.6,706.6 	"/>
	<path class="st1" d="M842.2,433l-0.2-0.2c-1.6-1.3-3.3-2.5-5.1-3.5c-1.8-1-3.7-1.9-5.7-2.5l-0.3-0.1c-25.8-8.6-46.8,0.9-55.9,25.5
		c-3.2,8.8-6.3,18.4-9.3,27.7c-6.7,20.9-14.1,44.2-23.2,55.6c-1.9,2.4-3.8,4.2-5.9,5.5c-3.3,2-7.7,4.3-12.8,7
		c-17.2,9.1-43,22.7-65.4,45.9c0,0.1,0,0.1,0,0.2c0.2,0.8,0.3,1.7,0.4,2.5c0,0.2,0.1,0.5,0.1,0.7c0.1,0.8,0.3,1.6,0.4,2.4
		c0,0.2,0.1,0.5,0.1,0.7c0.1,0.8,0.3,1.6,0.4,2.3c0,0.2,0,0.3,0.1,0.5c0.4,2.5,0.7,5,1,7.4c0-0.1,0-0.2,0-0.3c0-0.3-0.1-0.7-0.1-1
		c-0.1-0.6-0.1-1.1-0.2-1.7c0-0.3-0.1-0.7-0.1-1.1c-0.1-0.6-0.2-1.2-0.2-1.8c0-0.1,0-0.1,0-0.2c28.7-32.1,64.9-46.5,80.9-56.3
		c5.4-3.3,10.1-9.4,14.3-17.1c10.8-19.9,18.4-51,27.6-76c10.2-27.7,33.8-24.1,45.4-20.2c0,0,0,0,0,0c2.9,1,5.7,2.5,8,4.5
		c0,0,0,0,0,0c9.4,7.9,24.9,26,6.7,49.3c-4.6,5.9-9.8,12-15,18.1l1.1-0.4l-3.2,2.9l0,0c-19.8,23.1-40.1,46.5-40,64
		c0,10.2,2.1,26.2,2,45.2c-0.1,10.5-0.8,22-2.8,33.9c-1.5,8.9-3.8,18.1-7.1,27.4c-0.4,1.2-0.9,2.4-1.3,3.6c-0.2,0.6-0.5,1.2-0.7,1.8
		c-0.4,1-0.8,2-1.2,3c-0.4,0.9-0.8,1.8-1.2,2.8c-0.3,0.8-0.7,1.5-1,2.3c-0.8,1.7-1.7,3.5-2.5,5.2c-0.7,1.4-1.4,2.7-2.1,4
		c-7.7,14.6-14.6,25.2-25.1,36.5l10.4,1.2c8.6-10,15.1-20.2,22.1-33.4c0.7-1.4,1.5-2.8,2.2-4.3c4.3-8.4,7.6-16.7,10.3-25
		c3-9.4,5-18.7,6.3-27.7c1.6-10.6,2.2-20.8,2.2-30.2c0.1-12-0.6-22.7-1.2-31.5c-0.4-5.7-0.7-10.7-0.7-14.6
		c-0.1-14,19.5-36.8,36.7-56.9c6.3-7.4,12.9-15.1,18.7-22.5C866.1,473.4,863.2,450.6,842.2,433z"/>
	<polygon class="st1" points="768.1,702.3 775.6,706.6 775.6,706.6 	"/>
	<path class="st1" d="M836.6,439.4C836.6,439.4,836.5,439.4,836.6,439.4c-1.6-1.3-3.4-2.4-5.2-3.3C833.2,437,835,438.1,836.6,439.4
		C836.5,439.4,836.6,439.4,836.6,439.4z"/>
	<path class="st1" d="M824.6,433.8c0.5,0.1,1,0.3,1.5,0.4C825.7,434,825.2,433.9,824.6,433.8z"/>
	<path class="st1" d="M816.3,432.4c0.5,0,1.1,0.1,1.6,0.2C817.4,432.5,816.8,432.4,816.3,432.4z"/>
	<g>
		<path class="st1" d="M814.5,523l-2.4-1.3l-10.7-5.9L769,497.7c0,0,0,0.1,0,0.1c-2.4,7.3-5,14.4-7.6,20.8l0,0l11.8,6.6l21.5,12
			l6.1,3.4l0,0C804.8,534.9,809.5,529,814.5,523L814.5,523z"/>
		<path class="st1" d="M786.3,578.3c0-0.7-0.1-1.4-0.1-2c0-0.2,0-0.4,0-0.6c0-0.8,0-1.6,0-2.3c0-1,0.1-2,0.2-3c0,0,0,0,0,0
			c0.4-3.1,1.3-6.3,2.7-9.7l0,0l-12.8-7.1h0l-25.7-14.3l0,0c-1.4,2-2.9,3.7-4.4,5.3c0,0,0,0,0,0c-0.7,0.7-1.4,1.3-2.1,1.9
			c-0.1,0.1-0.3,0.2-0.4,0.3c-0.8,0.6-1.5,1.2-2.3,1.7c-0.6,0.4-1.3,0.8-2,1.2c-0.2,0.1-0.3,0.2-0.5,0.3c-0.6,0.3-1.2,0.7-1.9,1.1
			c-0.1,0-0.2,0.1-0.3,0.1c-1.6,0.9-3.3,1.8-5.2,2.8l0,0l27.3,15.2l27.9,15.6l0,0c-0.1-2-0.2-3.9-0.3-5.7
			C786.3,578.6,786.3,578.5,786.3,578.3z"/>
	</g>
	<path class="st1" d="M751.5,728.8c-0.2,0.2-0.4,0.5-0.5,0.7c-1,1.3-2.1,2.6-3.1,3.8c0,0,0,0,0,0c2.5-2.9,4.7-5.8,6.9-8.8
		C753.7,726,752.6,727.4,751.5,728.8z"/>
	<path class="st1" d="M754.9,724.2c1.1-1.6,2.2-3.2,3.3-4.8C757.1,721,756,722.6,754.9,724.2z"/>
	<path class="st1" d="M746.2,735.3c0.3-0.4,0.6-0.7,0.9-1.1C746.8,734.6,746.5,734.9,746.2,735.3z"/>
	<path class="st1" d="M754.7,724.5c-1,1.4-2.1,2.8-3.2,4.2C752.6,727.4,753.7,726,754.7,724.5z"/>
	<path class="st1" d="M758.2,719.4C758.2,719.4,758.2,719.4,758.2,719.4C758.2,719.4,758.2,719.4,758.2,719.4
		c-1.1,1.6-2.2,3.2-3.3,4.8l0,0C756,722.6,757.1,721,758.2,719.4z"/>
	<polygon class="st1" points="758.2,719.4 758.2,719.4 758.2,719.4 	"/>
	<polygon class="st1" points="754.9,724.2 754.9,724.2 754.9,724.2 	"/>
	<path class="st1" d="M743,738.8c1.1-1.2,2.1-2.4,3.2-3.5c0.3-0.4,0.6-0.7,0.9-1.1C745.8,735.7,744.4,737.3,743,738.8z"/>
	<polygon class="st1" points="747.1,734.2 747.1,734.2 747.1,734.2 	"/>
	<polygon class="st1" points="747.1,734.2 747.1,734.2 747.1,734.2 	"/>
	<path class="st1" d="M743,738.8c1.1-1.2,2.1-2.4,3.2-3.5C745.1,736.5,744.1,737.6,743,738.8z"/>
	<path class="st1" d="M751,729.5c-1,1.3-2.1,2.6-3.1,3.8C748.9,732,750,730.8,751,729.5z"/>
	<path class="st1" d="M747.8,733.3c-0.2,0.3-0.5,0.6-0.7,0.9C747.4,733.9,747.6,733.6,747.8,733.3z"/>
	<path class="st1" d="M751.5,728.8c-0.2,0.2-0.4,0.5-0.5,0.7C751.2,729.2,751.3,729,751.5,728.8z"/>
	<path class="st1" d="M754.9,724.2c-0.1,0.1-0.2,0.2-0.2,0.3C754.8,724.4,754.8,724.3,754.9,724.2z"/>
	<path class="st1" d="M754.7,724.5c0.1-0.1,0.2-0.2,0.2-0.3c0,0,0,0,0,0C754.8,724.3,754.8,724.4,754.7,724.5
		C754.7,724.5,754.7,724.5,754.7,724.5z"/>
	<path class="st1" d="M747.1,734.2c0.2-0.3,0.5-0.6,0.7-0.9C747.6,733.6,747.4,733.9,747.1,734.2
		C747.1,734.2,747.1,734.2,747.1,734.2z"/>
	<path class="st1" d="M636.8,537.6c-0.4-0.7-0.9-1.4-1.3-2.1c0.7,1.1,1.4,2.2,2,3.3C637.3,538.4,637.1,538,636.8,537.6z"/>
	<path class="st1" d="M634.7,534.2C634.7,534.2,634.7,534.2,634.7,534.2c0.2,0.4,0.5,0.8,0.8,1.3C635.2,535,635,534.6,634.7,534.2z"
		/>
	<path class="st1" d="M448.8,608.9c0.7,0.5,1.5,1,2.3,1.4C450.3,609.9,449.6,609.4,448.8,608.9z"/>
	<path class="st1" d="M470,622.5c0.1,0.1,0.2,0.1,0.3,0.2C470.2,622.6,470.1,622.5,470,622.5z"/>
	<path class="st1" d="M447.5,608.1c-0.2-0.1-0.4-0.3-0.7-0.4c0,0,0,0,0,0C447,607.8,447.3,608,447.5,608.1z"/>
	<path class="st1" d="M743.6,738.1c-0.2,0.2-0.4,0.5-0.6,0.7c0.6-0.6,1.1-1.2,1.6-1.8C744.3,737.4,744,737.8,743.6,738.1z"/>
	<path class="st1" d="M743.6,738.1c-0.2,0.2-0.4,0.5-0.6,0.7l0,0C743.2,738.6,743.4,738.4,743.6,738.1z"/>
	<path class="st1" d="M744.6,737c-0.3,0.4-0.6,0.7-1,1.1c1.1-1.2,2.1-2.3,3.1-3.5C746.1,735.4,745.3,736.2,744.6,737z"/>
	<path class="st1" d="M746.8,734.6c-0.7,0.8-1.4,1.6-2.1,2.4C745.3,736.2,746.1,735.4,746.8,734.6L746.8,734.6z"/>
	<path class="st1" d="M469,621.8c0.8,0.5,1.6,1.1,2.4,1.7C470.6,622.9,469.8,622.3,469,621.8z"/>
	<path class="st1" d="M464.1,618.6c0.8,0.5,1.6,1,2.4,1.5C465.6,619.6,464.9,619.1,464.1,618.6z"/>
	<path class="st1" d="M459.3,615.5c0.7,0.5,1.5,0.9,2.3,1.4C460.8,616.5,460.1,616,459.3,615.5z"/>
	<path class="st1" d="M456.8,613.9c-0.9-0.6-1.8-1.1-2.7-1.7v0C455,612.8,455.9,613.4,456.8,613.9z"/>
	<path class="st1" d="M226,589.6c-0.3-0.1-0.5-0.1-0.8-0.2C225.5,589.5,225.8,589.6,226,589.6z"/>
	<path class="st1" d="M239.5,596.8c-0.5-0.5-1.1-0.9-1.6-1.4C238.4,595.9,239,596.4,239.5,596.8z"/>
	<path class="st1" d="M224.5,589.4c-0.3,0-0.5-0.1-0.8-0.1C224,589.3,224.3,589.3,224.5,589.4z"/>
	<path class="st1" d="M233.9,592.7c-0.3-0.2-0.6-0.4-0.9-0.5C233.3,592.4,233.6,592.6,233.9,592.7z"/>
	<path class="st1" d="M230.7,591.1c-0.3-0.1-0.6-0.2-0.8-0.4C230.2,590.9,230.4,591,230.7,591.1z"/>
	<path class="st1" d="M235.6,593.8c-0.3-0.2-0.6-0.4-1-0.6C235,593.4,235.3,593.6,235.6,593.8z"/>
	<path class="st1" d="M232.3,591.9c-0.3-0.1-0.6-0.3-0.9-0.4C231.7,591.6,232,591.7,232.3,591.9z"/>
	<path class="st1" d="M229.1,590.5c-0.3-0.1-0.5-0.2-0.8-0.3C228.6,590.3,228.9,590.4,229.1,590.5z"/>
	<path class="st1" d="M227.6,590c-0.3-0.1-0.5-0.2-0.8-0.2C227,589.8,227.3,589.9,227.6,590z"/>
	<path class="st1" d="M237.3,595c-0.4-0.3-0.7-0.5-1.1-0.8C236.6,594.5,237,594.8,237.3,595z"/>
	<path class="st1" d="M213.3,590.4c-0.2,0.1-0.4,0.2-0.7,0.2C212.9,590.6,213.1,590.5,213.3,590.4z"/>
	<path class="st1" d="M204.2,595.2c-0.2,0.1-0.3,0.2-0.5,0.4C203.9,595.4,204,595.3,204.2,595.2z"/>
	<path class="st1" d="M203.2,595.9c-0.2,0.1-0.3,0.3-0.5,0.4C202.9,596.1,203.1,596,203.2,595.9z"/>
	<path class="st1" d="M202.3,596.6c-0.2,0.1-0.3,0.3-0.5,0.4C202,596.9,202.2,596.7,202.3,596.6z"/>
	<path class="st1" d="M206.3,593.8c-0.2,0.1-0.4,0.2-0.6,0.4C205.9,594.1,206.1,593.9,206.3,593.8z"/>
	<path class="st1" d="M205.2,594.5c-0.2,0.1-0.4,0.2-0.5,0.4C204.8,594.7,205,594.6,205.2,594.5z"/>
	<path class="st1" d="M220.8,589.1c0.2,0,0.5,0,0.7,0C221.3,589.1,221.1,589.1,220.8,589.1z"/>
	<path class="st1" d="M201.5,597.3c-0.2,0.1-0.3,0.3-0.4,0.4C201.2,597.6,201.3,597.4,201.5,597.3z"/>
	<path class="st1" d="M199.9,598.7c-0.2,0.2-0.4,0.3-0.5,0.5C199.5,599,199.7,598.9,199.9,598.7z"/>
	<path class="st1" d="M207.3,593.2c-0.2,0.1-0.4,0.2-0.6,0.3C206.9,593.4,207.1,593.3,207.3,593.2z"/>
	<path class="st1" d="M200.6,598c-0.2,0.1-0.3,0.3-0.5,0.4C200.3,598.3,200.5,598.2,200.6,598z"/>
	<path class="st1" d="M209.6,592c-0.2,0.1-0.4,0.2-0.6,0.3C209.2,592.2,209.4,592.1,209.6,592z"/>
	<path class="st1" d="M218.7,589.3c-0.2,0-0.5,0.1-0.7,0.1C218.2,589.3,218.5,589.3,218.7,589.3z"/>
	<path class="st1" d="M217.3,589.4c-0.2,0-0.5,0.1-0.7,0.1C216.8,589.5,217.1,589.5,217.3,589.4z"/>
	<path class="st1" d="M220.1,589.1c-0.2,0-0.5,0-0.7,0C219.6,589.2,219.9,589.2,220.1,589.1z"/>
	<path class="st1" d="M208.5,592.5c-0.2,0.1-0.4,0.2-0.6,0.3C208.1,592.8,208.3,592.7,208.5,592.5z"/>
	<path class="st1" d="M216,589.7c-0.2,0.1-0.5,0.1-0.7,0.2C215.5,589.8,215.7,589.8,216,589.7z"/>
	<path class="st1" d="M223,589.2c-0.3,0-0.5,0-0.8,0C222.5,589.1,222.8,589.2,223,589.2z"/>
	<path class="st1" d="M214.6,590c-0.2,0.1-0.5,0.1-0.7,0.2C214.2,590.2,214.4,590.1,214.6,590z"/>
	<path class="st1" d="M210.8,591.4c-0.2,0.1-0.4,0.2-0.6,0.3C210.4,591.6,210.6,591.5,210.8,591.4z"/>
	<path class="st1" d="M212.1,590.9c-0.2,0.1-0.4,0.2-0.6,0.3C211.6,591.1,211.8,591,212.1,590.9z"/>
	<polygon class="st1" points="368.3,661.2 368.3,661.2 368.3,661.2 	"/>
	<path class="st1" d="M347.7,657.4c0.4,0,0.7,0.1,1.1,0.1C348.4,657.4,348.1,657.4,347.7,657.4z"/>
	<path class="st1" d="M383.8,666c0.1,0,0.1,0,0.2,0.1C383.9,666.1,383.8,666,383.8,666z"/>
	<path class="st1" d="M364.3,660.3C364.3,660.3,364.3,660.3,364.3,660.3C364.3,660.3,364.3,660.3,364.3,660.3z"/>
	<path class="st1" d="M372.7,662.4c0.1,0,0.2,0.1,0.3,0.1C372.9,662.4,372.8,662.4,372.7,662.4z"/>
	<polygon class="st1" points="339.8,656.5 339.8,656.5 339.8,656.5 	"/>
	<path class="st1" d="M329,655.7c0.3,0,0.6,0,0.9,0.1C329.6,655.7,329.3,655.7,329,655.7z"/>
	<path class="st1" d="M450.2,820c-1.3,0.6-2.7,0.7-4,0.4c-6.6-1.7-14.7-3.8-24.7-6.1c-0.2-0.1-0.4-0.1-0.7-0.2
		c-15.7-3.7-27.5-6.8-37.2-10h0c-18.3-6.1-29.1-12.6-44.5-24.4c-12.5-9.5-22-20.5-29.6-31.7c-2.3-3.4-4.5-6.9-6.4-10.3
		c-11.1-19.4-16.8-37.9-21.5-47.9c-8.2-17.5-46.4-30-74.4-44c-22.4-11.2-17.1-30.7-12.7-40.1c0,0,0,0,0,0c1.1-2.4,2.6-4.5,4.5-6.3
		c0,0,0,0,0,0c0.1-0.1,0.1-0.1,0.2-0.2c0.2-0.2,0.3-0.3,0.5-0.5c0.1-0.1,0.2-0.2,0.3-0.3c0.2-0.1,0.3-0.3,0.5-0.4
		c0.1-0.1,0.2-0.2,0.4-0.3c0.1-0.1,0.3-0.3,0.4-0.4c0.1-0.1,0.3-0.2,0.4-0.3c0.2-0.1,0.3-0.3,0.5-0.4c0.1-0.1,0.3-0.2,0.4-0.3
		c0.2-0.1,0.3-0.3,0.5-0.4c0.1-0.1,0.3-0.2,0.4-0.3c0.2-0.1,0.3-0.3,0.5-0.4c0.2-0.1,0.3-0.2,0.5-0.3c0.2-0.1,0.4-0.2,0.5-0.4
		c0.2-0.1,0.3-0.2,0.5-0.3c0.2-0.1,0.4-0.2,0.6-0.4c0.2-0.1,0.3-0.2,0.5-0.3c0.2-0.1,0.4-0.2,0.6-0.3c0.2-0.1,0.4-0.2,0.5-0.3
		c0.2-0.1,0.4-0.2,0.6-0.3c0.2-0.1,0.4-0.2,0.6-0.3c0.2-0.1,0.4-0.2,0.6-0.3c0.2-0.1,0.4-0.2,0.6-0.3c0.2-0.1,0.4-0.2,0.6-0.3
		c0.2-0.1,0.4-0.2,0.6-0.2c0.2-0.1,0.4-0.2,0.6-0.3c0.2-0.1,0.4-0.2,0.6-0.2c0.2-0.1,0.4-0.2,0.7-0.2c0.2-0.1,0.4-0.1,0.6-0.2
		c0.2-0.1,0.4-0.1,0.7-0.2c0.2-0.1,0.4-0.1,0.6-0.2c0.2-0.1,0.5-0.1,0.7-0.2c0.2,0,0.4-0.1,0.7-0.1c0.2,0,0.5-0.1,0.7-0.1
		c0.2,0,0.4-0.1,0.7-0.1c0.2,0,0.5-0.1,0.7-0.1c0.2,0,0.5,0,0.7-0.1c0.2,0,0.5,0,0.7,0c0.2,0,0.5,0,0.7,0c0.2,0,0.5,0,0.7,0
		c0.2,0,0.5,0,0.7,0c0.3,0,0.5,0,0.8,0c0.2,0,0.5,0,0.7,0.1c0.3,0,0.5,0.1,0.8,0.1c0.2,0,0.5,0.1,0.7,0.1c0.3,0,0.5,0.1,0.8,0.2
		c0.2,0.1,0.5,0.1,0.7,0.2c0.3,0.1,0.5,0.1,0.8,0.2c0.2,0.1,0.5,0.1,0.7,0.2c0.3,0.1,0.5,0.2,0.8,0.3c0.2,0.1,0.5,0.2,0.7,0.3
		c0.3,0.1,0.6,0.2,0.8,0.4c0.2,0.1,0.5,0.2,0.7,0.3c0.3,0.1,0.6,0.3,0.9,0.4c0.2,0.1,0.5,0.2,0.7,0.4c0.3,0.2,0.6,0.3,0.9,0.5
		c0.2,0.1,0.5,0.3,0.7,0.4c0.3,0.2,0.6,0.4,1,0.6c0.2,0.1,0.4,0.3,0.7,0.4c0.4,0.3,0.7,0.5,1.1,0.8c0.2,0.1,0.4,0.3,0.6,0.4
		c0.5,0.4,1.1,0.9,1.6,1.4c0.6,0.5,1.1,1,1.7,1.6c8.7,8.5,17.6,18.5,26.4,27.7c0.4,0.4,0.8,0.8,1.2,1.2c1.7,1.8,3.4,3.5,5.1,5.1
		c1.7,1.7,3.4,3.3,5,4.8c1.7,1.6,3.3,3,5,4.4c1.6,1.4,3.3,2.7,4.9,3.9c0.8,0.6,1.6,1.2,2.4,1.8c1.6,1.1,3.2,2.1,4.7,3
		c1.6,0.9,3.1,1.6,4.6,2.3c1.5,0.6,3,1.1,4.4,1.4c0.7,0.2,1.5,0.3,2.2,0.4c0.6,0.1,1.2,0.1,1.8,0.2c0.4,0,0.8,0.1,1.2,0.1
		c0.3,0,0.5,0,0.7,0.1c0.5,0,0.9,0.1,1.4,0.1c0.2,0,0.5,0,0.7,0c0.7,0,1.4,0.1,2.1,0.1c0,0,0.1,0,0.1,0c4.1,0.2,8.8,0.4,13.9,0.7
		c0.3,0,0.6,0,0.9,0.1c1.3,0.1,2.6,0.2,4,0.3c1.9,0.1,3.9,0.3,5.9,0.5c0,0,0,0,0,0c0,0,0,0,0,0c1.2,0.1,2.3,0.2,3.5,0.4
		c1.4,0.2,2.9,0.3,4.4,0.5c0.4,0,0.7,0.1,1.1,0.1c1.5,0.2,3,0.4,4.6,0.7c2.3,0.4,4.6,0.8,7,1.3c1.3,0.3,2.6,0.5,3.9,0.8
		c0,0,0,0,0.1,0c1.3,0.3,2.6,0.6,3.9,0.9l0,0c0,0,0,0,0,0c1.4,0.4,2.9,0.8,4.4,1.2c0.1,0,0.2,0.1,0.3,0.1c3.6,1,7.2,2.2,10.8,3.5
		c0.1,0,0.1,0,0.2,0.1c2,0.7,4,1.6,5.9,2.4c0,0,0,0,0-0.1c0,0,0,0,0,0c0.1-1,0.1-2,0.2-2.9c0.1-1.6,0.3-3.1,0.5-4.6
		c-18.9-7.7-37.5-10.6-52.9-11.9c-6.5-0.5-12.4-0.8-17.6-1c-4.9-0.2-9.1-0.4-12.3-0.7c-6.6-0.7-15-6.9-23.9-15.2
		c-2.3-2.2-4.7-4.5-7-6.9c-4.5-4.6-9.1-9.5-13.5-14.1c-5.6-6-11.5-12.3-17.1-17.8c-15.8-15.5-35.3-15.2-51.9,0.8l-0.2,0.2
		c-1.3,1.2-2.4,2.5-3.4,4c-1,1.4-1.9,3-2.6,4.5l-0.1,0.2c-9.6,21.1-3.6,39.5,16.1,49.4c7.1,3.6,14.9,7,22.4,10.4
		c20.5,9.2,43.6,19.5,48.6,30.2c1.4,3,2.9,6.9,4.7,11.4c3.9,10,9.1,23.2,17,37c1.5,2.5,3,5.1,4.6,7.7c8.2,12.7,18.9,25.5,33.2,36.5
		c15.5,11.9,26.9,18.7,44.4,24.7c8.9,3.1,19.4,6,32.7,9.2c2.6,0.6,5.2,1.3,8,1.9c9.3,2.2,17.5,4.2,24.5,6.1c3.9,1,8.1,0.2,11.3-2.2
		C453.8,823.4,452,821.7,450.2,820z"/>
	<g>
		<path class="st1" d="M280.9,639.1c-1.3-1.2-2.7-2.5-4-3.8c-0.2-0.2-0.5-0.5-0.7-0.7c-1.3-1.3-2.6-2.6-4-3.9c-0.3-0.3-0.7-0.7-1-1
			c0,0,0,0,0,0c-0.8-0.8-1.5-1.6-2.3-2.4c-0.4-0.4-0.8-0.8-1.2-1.2c-0.1-0.1-0.1-0.2-0.2-0.2l0,0l-0.2,0.3l-0.4,0.6l-6.6,9.2
			l-18.5,25.8l0,0c6,2.8,11.7,5.6,16.9,8.4l0,0l15-21L280.9,639.1L280.9,639.1z"/>
		<path class="st1" d="M313.9,654.9c0,0-0.1,0-0.1,0c-0.7,0-1.4-0.1-2-0.1c-0.2,0-0.3,0-0.5,0c-0.6,0-1.1-0.1-1.7-0.1
			c-0.2,0-0.4,0-0.6,0c-0.7-0.1-1.4-0.1-2-0.2c-0.8-0.1-1.6-0.2-2.4-0.4c0,0,0,0,0,0c-0.1,0-0.2-0.1-0.4-0.1c0,0,0,0,0,0
			c-0.8-0.2-1.5-0.4-2.3-0.7c0,0,0,0,0,0c0,0,0,0,0,0c0,0,0,0,0,0c0,0,0,0,0,0c-1.7-0.6-3.5-1.4-5.3-2.4l0,0l-7.1,10l-14.5,20.3l0,0
			c2.2,2,4.1,4.1,5.4,6.3c0.1,0.1,0.1,0.2,0.2,0.3c0.4,0.7,0.8,1.4,1.2,2.1c0.3,0.6,0.6,1.3,0.9,1.9c0.9,2,1.8,4.3,2.8,6.8l0,0
			l23.9-33.5l7.1-10l0,0l0,0C315.6,655,314.7,655,313.9,654.9z"/>
	</g>
	<path class="st1" d="M377,483.2c0.2,0,0.3,0,0.5,0C377.4,483.2,377.2,483.2,377,483.2z"/>
	<path class="st1" d="M368.1,483.7c0.2,0,0.3,0,0.5-0.1C368.4,483.6,368.3,483.6,368.1,483.7z"/>
	<path class="st1" d="M372.4,483.2c0.2,0,0.3,0,0.5,0C372.8,483.2,372.6,483.2,372.4,483.2z"/>
	<path class="st1" d="M364.3,484.4c0.1,0,0.3-0.1,0.4-0.1C364.5,484.3,364.4,484.3,364.3,484.4z"/>
	<path class="st1" d="M415.5,543.4c0,0,0,0.1,0,0.1l0,0C415.5,543.5,415.5,543.5,415.5,543.4z"/>
	<path class="st1" d="M405.1,504c0.1,0.3,0.2,0.5,0.3,0.8C405.3,504.5,405.2,504.3,405.1,504z"/>
	<path class="st1" d="M402.1,497.6c0.1,0.2,0.3,0.4,0.4,0.6C402.3,498.1,402.2,497.8,402.1,497.6z"/>
	<path class="st1" d="M398.4,492.6c0.1,0.2,0.3,0.3,0.4,0.5C398.7,492.9,398.5,492.8,398.4,492.6z"/>
	<path class="st1" d="M411.6,527.5c0.5,2.1,1,4.2,1.5,6.3C412.6,531.7,412.1,529.6,411.6,527.5z"/>
	<path class="st1" d="M394.2,488.8c0.2,0.1,0.3,0.2,0.5,0.4C394.5,489.1,394.3,489,394.2,488.8z"/>
	<path class="st1" d="M408.9,516.7c0.7,2.7,1.4,5.4,2.1,8.1C410.3,522.1,409.6,519.4,408.9,516.7z"/>
	<path class="st1" d="M383.4,665.9c0.2,0.1,0.5,0.2,0.7,0.3C383.8,666,383.6,666,383.4,665.9z"/>
	<path class="st1" d="M381.6,665.2c0.6,0.2,1.2,0.4,1.8,0.6C382.8,665.6,382.2,665.4,381.6,665.2
		C381.6,665.2,381.6,665.2,381.6,665.2z"/>
	<polygon class="st1" points="380.7,693.9 389.2,689.1 389.2,689.1 	"/>
	<path class="st1" d="M384.1,666.1c1.5,0.6,3,1.2,4.5,1.8c-0.1,0-0.2-0.1-0.4-0.2C386.8,667.2,385.5,666.6,384.1,666.1z"/>
	<path class="st1" d="M460.4,616.2c0.1,0.1,0.3,0.2,0.4,0.3C460.7,616.4,460.5,616.3,460.4,616.2z"/>
	<path class="st1" d="M448.6,608.8c1,0.6,2.1,1.3,3.1,2C450.7,610.1,449.6,609.5,448.6,608.8z"/>
	<path class="st1" d="M464.7,619c0.3,0.2,0.5,0.3,0.8,0.5C465.2,619.3,465,619.1,464.7,619z"/>
	<path class="st1" d="M445,606.4c1,0.6,2,1.3,3,2C446.9,607.7,445.9,607.1,445,606.4z"/>
	<path class="st1" d="M441.6,604.2c0.9,0.6,1.8,1.2,2.8,1.9C443.4,605.4,442.5,604.8,441.6,604.2z"/>
	<path class="st1" d="M452.1,611c1.3,0.8,2.8,1.7,4.2,2.6C454.9,612.8,453.5,611.9,452.1,611z"/>
	<path class="st1" d="M469.7,622.3c0.3,0.2,0.6,0.4,0.9,0.6C470.3,622.7,470,622.5,469.7,622.3z"/>
	<path class="st1" d="M524.9,844.1l-28.2,13.1c-2.9,1.4-6.4,0.9-8.6-1.3c-4.7-4.5-10.3-9.9-17-16.1c-1.6-1.5-3.2-2.9-4.9-4.5
		c-0.2-0.2-0.4-0.3-0.5-0.5c-5.8-5.4-11-10.2-15.6-14.7c-5.5-5.3-10.3-10.2-14.5-14.7c-12.1-13-19.4-23.5-26.1-36.5
		c-2.7-5.2-5.2-10.8-7.9-17.1c-1.9-4.6-3.6-9.1-5-13.6c-5.4-17.1-7.4-33.8-7.6-49c0-2.6,0-5.1,0.1-7.6c0,0,0,0,0,0
		c0.1-4.4,0.3-8.7,0.6-12.8c0,0,0-0.1,0-0.1c-0.6-0.2-1.1-0.5-1.7-0.7c-1.4-0.6-2.8-1.1-4.1-1.6c-0.2-0.1-0.5-0.2-0.7-0.3
		c-0.6-0.2-1.2-0.4-1.8-0.6c-0.3,4-0.6,8.1-0.8,12.4c-0.2,5.2-0.3,10.6-0.1,16.2c0.5,14.2,2.6,29.6,7.3,45.3
		c1.6,5.3,3.5,10.6,5.8,16c3.4,8,6.7,15,10.2,21.4c6.4,11.7,13.5,21.7,24.1,33.3c2.3,2.5,4.8,5.2,7.5,7.9c6.9,7,15,14.7,24.8,23.8
		c8.3,7.7,15.6,14.6,21.7,20.5c4.7,4.6,12,5.8,18.2,2.9l46.5-21.7c-3.9-1.2-7.7-2.6-11.5-4.1L524.9,844.1z"/>
	<path class="st1" d="M566.2,823c-0.6-8.4-1.2-18.4-1.7-29.8c-1.9-41.4-4.6-61.9-12.7-83.4c0,0,0,0,0,0c-2.6-4.4-5.1-8.5-7.3-12.4
		c0,0,0,0,0,0c-2.2-3.9-4.3-7.5-6.2-11c0,0,0,0,0,0c0,0,0,0,0,0c-0.5-1-1.1-1.9-1.6-2.9c0,0,0,0,0,0c0,0,0,0,0,0
		c-3.1-5.7-5.7-11-8-15.9c0,0,0,0,0,0c0,0,0,0,0-0.1c0,0,0,0,0,0c-0.4-0.8-0.7-1.6-1-2.3c0,0,0,0,0,0c0,0,0-0.1-0.1-0.1
		c-0.4-0.8-0.7-1.6-1-2.4c-21.7-28.9-49.5-46.3-67.5-57.6c-4.9-3-9.1-5.7-12.2-7.9c-9.5-6.8-16-28.4-21.5-50.4
		c-1.1-4.2-2.1-8.5-3.1-12.7c-2.3-9.5-4.6-19.3-7.2-28.3c-7.2-25.1-27.5-36.1-53.9-29.5l-0.3,0.1c-2,0.5-4,1.2-5.8,2.1
		c-1.9,0.9-3.7,1.9-5.4,3.1l-0.2,0.2c-12.7,9.2-19.6,20.6-20.5,32.7c-0.3,5,0.3,10,2,15.1c1.4,4.1,3.5,8.3,6.2,12.4
		c5.2,7.8,11.2,15.9,17,23.7c12.3,16.7,25.8,35.1,30.6,49c1.3,3.9,2,7.4,1.8,10.4c-0.3,3.9-1,8.8-1.8,14.5
		c-0.9,6.7-2.1,14.5-2.9,23.2l8.4,2.6c1.5-16.6,4.1-30.4,4.9-39.7c0.3-3.7-0.3-7.7-1.6-11.9c-5.8-19-25.3-43-41.6-65.8l0,0
		c-2.6-3.7-5.2-7.3-7.6-10.9c-4.9-7.3-6.9-14-6.9-19.9c-0.1-13.9,10.2-23.7,17.2-28.7c0,0,0,0,0,0c0.6-0.4,1.3-0.9,1.9-1.3
		c1.3-0.8,2.7-1.4,4.2-1.9c0.7-0.3,1.5-0.5,2.2-0.7c0,0,0,0,0,0c0.5-0.1,1-0.2,1.5-0.4c0.1,0,0.3-0.1,0.4-0.1
		c1.1-0.2,2.3-0.5,3.5-0.6c0.2,0,0.3,0,0.5-0.1c1.2-0.2,2.5-0.3,3.8-0.4c0.2,0,0.3,0,0.5,0c1.3-0.1,2.7-0.1,4.1,0c0.2,0,0.3,0,0.5,0
		c0.7,0,1.4,0.1,2.1,0.2c1.1,0.1,2.1,0.3,3.2,0.5c1.1,0.2,2.1,0.5,3.2,0.8c1.1,0.3,2.1,0.7,3.1,1.2c1,0.5,2.1,1,3.1,1.6
		c0.7,0.4,1.3,0.9,2,1.3c0.2,0.1,0.3,0.2,0.5,0.4c0.6,0.5,1.3,1,1.9,1.6c0.6,0.6,1.2,1.2,1.8,1.8c0.1,0.2,0.3,0.3,0.4,0.5
		c0.6,0.7,1.1,1.4,1.7,2.1c0.5,0.8,1.1,1.6,1.6,2.4c0.1,0.2,0.3,0.4,0.4,0.6c0.5,0.9,1,1.8,1.4,2.7c0.5,1,0.9,2,1.3,3
		c0.1,0.3,0.2,0.5,0.3,0.8c0.4,1.1,0.8,2.2,1.1,3.4c0.8,2.8,1.6,5.6,2.3,8.5c0.7,2.7,1.4,5.4,2.1,8.1c0.2,0.9,0.4,1.8,0.7,2.7
		c0.5,2.1,1,4.2,1.5,6.3c0.8,3.2,1.5,6.4,2.3,9.6c0,0,0,0.1,0,0.1v0c6.4,26.3,13.4,51.4,26.1,60.6c0.9,0.6,1.8,1.2,2.8,1.9
		c0.2,0.1,0.4,0.3,0.6,0.4c1,0.6,2,1.3,3,2c0.2,0.1,0.4,0.3,0.6,0.4c1,0.6,2.1,1.3,3.1,2c0.1,0.1,0.2,0.2,0.4,0.2
		c1.4,0.8,2.8,1.7,4.2,2.6c1.3,0.8,2.7,1.7,4.1,2.6c0.1,0.1,0.3,0.2,0.4,0.3c1.3,0.8,2.5,1.6,3.8,2.5c0.3,0.2,0.5,0.3,0.8,0.5
		c1.4,0.9,2.8,1.8,4.2,2.8c0.3,0.2,0.6,0.4,0.9,0.6c1.5,1,3,2.1,4.6,3.2c2.1,1.5,4.3,3,6.4,4.7c1.1,0.8,2.2,1.7,3.4,2.6
		c0.4,0.3,0.8,0.6,1.1,0.9c0.8,0.6,1.5,1.2,2.3,1.8c0.4,0.4,0.9,0.7,1.3,1.1c0.7,0.6,1.4,1.1,2.1,1.7c0.5,0.4,1,0.8,1.4,1.2
		c0.7,0.6,1.3,1.1,2,1.7c0.5,0.4,1,0.9,1.5,1.3c0.6,0.6,1.3,1.1,1.9,1.7c0.5,0.5,1,0.9,1.5,1.4c0.6,0.6,1.3,1.2,1.9,1.8
		c0.5,0.5,1,1,1.5,1.5c0.6,0.6,1.2,1.2,1.8,1.9c0.5,0.5,1,1,1.5,1.6c0.6,0.6,1.2,1.3,1.8,1.9c0.5,0.5,1,1.1,1.5,1.6
		c0.6,0.7,1.2,1.3,1.8,2c0.5,0.6,1,1.1,1.5,1.7c0.6,0.7,1.2,1.4,1.7,2.1c0.5,0.6,1,1.2,1.4,1.8c0.6,0.7,1.1,1.5,1.7,2.2
		c0.5,0.6,0.9,1.2,1.4,1.8c0.6,0.8,1.1,1.5,1.7,2.3c0.4,0.6,0.9,1.2,1.3,1.8c0.6,0.8,1.1,1.6,1.7,2.5c0.4,0.6,0.8,1.2,1.2,1.8
		c0.6,0.9,1.1,1.8,1.7,2.7c0.4,0.6,0.8,1.2,1.1,1.8c0.6,1,1.2,2,1.8,3.1c0.3,0.5,0.6,1,0.9,1.6c0.9,1.6,1.7,3.2,2.6,4.8
		c0.6,1.2,1.2,2.4,1.8,3.5c0.2,0.3,0.3,0.7,0.5,1c0.4,0.9,0.9,1.8,1.3,2.6c0.1,0.3,0.3,0.6,0.4,0.9c0.5,1.1,1,2.2,1.5,3.3
		c0.1,0.2,0.2,0.4,0.3,0.6c0.4,0.9,0.8,1.8,1.2,2.7c0.1,0.3,0.3,0.6,0.4,0.9c0.4,0.9,0.8,1.8,1.1,2.6c0.1,0.2,0.2,0.4,0.2,0.6
		c0.4,1,0.8,2.1,1.2,3.1c0.1,0.3,0.2,0.5,0.3,0.8c0.3,0.8,0.6,1.6,0.9,2.4c0.1,0.3,0.2,0.6,0.3,0.9c0.7,2.1,1.4,4.2,2.1,6.3
		c0.1,0.3,0.2,0.6,0.3,0.9c0.2,0.8,0.5,1.7,0.7,2.5c0.1,0.3,0.2,0.5,0.2,0.8c0.3,1.1,0.6,2.2,0.8,3.3c0,0.2,0.1,0.4,0.1,0.6
		c0.2,0.9,0.4,1.9,0.6,2.8c0.1,0.3,0.1,0.7,0.2,1c0.2,1,0.4,1.9,0.6,2.9c0,0.2,0.1,0.4,0.1,0.7c0.2,1.2,0.4,2.4,0.6,3.7
		c0.1,0.3,0.1,0.7,0.2,1c0.2,1,0.3,2,0.5,3c0.1,0.4,0.1,0.8,0.2,1.1c0.2,1.3,0.4,2.7,0.5,4.1c0.1,1.1,0.3,2.2,0.4,3.3
		c0.2,1.6,0.4,3.4,0.5,5.1c0.1,0.6,0.1,1.1,0.2,1.7c0.1,0.6,0.1,1.2,0.2,1.7c0.1,0.6,0.1,1.2,0.2,1.8c0,0.6,0.1,1.1,0.1,1.7
		c0.1,1,0.2,2.1,0.2,3.1c0,0.5,0.1,1,0.1,1.5c0.1,0.9,0.1,1.7,0.2,2.6c0,0.5,0.1,1,0.1,1.5c0.1,0.9,0.1,1.8,0.2,2.7
		c0,0.5,0.1,0.9,0.1,1.4c0.1,1.4,0.2,2.7,0.2,4.2c0.2,3.2,0.3,6.5,0.5,10c0.1,1.4,0.1,2.8,0.2,4.1c0,0.3,0,0.6,0,0.9
		c0.1,1,0.1,2.1,0.2,3.1c0,0.3,0,0.6,0,0.9c0.1,1.3,0.1,2.5,0.2,3.7c0.1,1.5,0.2,2.9,0.2,4.3c0,0.5,0.1,0.9,0.1,1.4
		c0.1,0.9,0.1,1.9,0.2,2.8c0,0.5,0.1,0.9,0.1,1.4c0.1,0.9,0.1,1.8,0.2,2.7c0,0.4,0.1,0.8,0.1,1.1c0.1,1.2,0.2,2.4,0.3,3.6
		c0,0.5,0,1-0.1,1.4c0,0.1,0,0.2-0.1,0.3c-0.1,0.4-0.2,0.8-0.3,1.2c0,0,0,0.1,0,0.1c-0.4,1-0.9,1.8-1.7,2.6
		c-0.4,0.4-0.8,0.8-1.3,1.1c-0.3,0.2-0.7,0.4-1,0.6l-7.1,3.3c4.6,1,9.3,1.8,14,2.4C564.1,833.4,566.6,828.3,566.2,823z"/>
	<path class="st1" d="M415.5,543.6c-1.6-6.7-3.3-13.6-4.9-20.2C412.2,530,413.9,536.8,415.5,543.6L415.5,543.6z"/>
	<path class="st1" d="M352.2,490.3C352.2,490.3,352.2,490.3,352.2,490.3C352.2,490.3,352.2,490.3,352.2,490.3
		C352.2,490.3,352.2,490.3,352.2,490.3z"/>
	<g>
		<path class="st1" d="M410.5,579.3l13.2-6.1l0,0c-2.2-6.7-4.2-14-6.1-21.5l0,0l-13.2,6.1L377,570.6l-6.7,3.1l0,0
			c4.5,6.3,8.8,12.5,12.5,18.5l0,0l12.2-5.7L410.5,579.3z"/>
		<path class="st1" d="M448.6,608.8C448.6,608.8,448.6,608.8,448.6,608.8c-0.4-0.2-0.7-0.5-1.1-0.7c-0.4-0.3-0.8-0.5-1.2-0.8
			c-0.2-0.1-0.4-0.2-0.6-0.4c-0.2-0.1-0.4-0.3-0.6-0.4c-0.3-0.2-0.6-0.4-0.9-0.6c-0.1,0-0.1-0.1-0.2-0.1c-0.2-0.1-0.4-0.2-0.5-0.4
			c-0.7-0.5-1.3-0.9-1.9-1.3c0,0,0,0,0,0c-3.2-2.3-6.1-5.7-8.6-9.8l0,0l-13.2,6.1l-5.9,2.7L393,613l0,0c0.1,0.3,0.2,0.7,0.3,1
			c1.3,4.2,2,8.3,1.7,11.9c-0.1,1-0.2,2.1-0.3,3.3c0,0.4-0.1,0.7-0.1,1.1c-0.1,0.9-0.2,1.8-0.3,2.7c-0.1,0.5-0.1,0.9-0.2,1.4
			c-0.1,0.9-0.2,1.8-0.4,2.7l44.2-20.6l13.2-6.1l0,0C450.2,609.8,449.4,609.3,448.6,608.8z"/>
	</g>
	<path class="st1" d="M759.6,697.5c0-12-1.3-24-3.8-35.8c-3.6-16.7-9.7-32.9-18.3-48.1c-3.2-5.6-6.8-11.1-10.7-16.4
		c-5.9-8-12.6-15.7-20-22.7c-1.6-1.5-3.2-2.9-4.8-4.3c-6.2-5.4-12.7-10.3-19.4-14.7c-0.7-0.4-1.3-0.9-2-1.3
		c-14.4-9.1-29.9-15.8-45.9-20.1c0,0,0,0,0,0l0,0c-6.1-1.6-12.2-2.9-18.4-3.8c-31.8-4.9-64.6-0.8-94.3,12.3
		c-20.1,8.8-38.7,21.7-54.7,38.6c-7.8,8.3-14.6,17.2-20.4,26.5c0.2,0.1,0.4,0.3,0.7,0.4c0.4,0.3,0.9,0.6,1.3,0.8
		c0.7,0.5,1.5,1,2.3,1.4c5.5,3.4,11.9,7.4,18.9,12.1c0.1,0.1,0.2,0.1,0.3,0.2c1.2,0.8,2.5,1.7,3.8,2.6c0.7,0.5,1.5,1,2.2,1.6
		c-0.3-0.2-0.6-0.5-0.9-0.7c0,0,0,0,0,0c1.6,1.1,3.3,2.4,5,3.6c0.8,0.6,1.7,1.2,2.5,1.9c0.6,0.4,1.2,0.9,1.8,1.3
		c0.3,0.2,0.6,0.4,0.8,0.6c0.9,0.7,1.8,1.4,2.7,2.1c0.2,0.2,0.4,0.4,0.7,0.5c2.3,1.8,4.5,3.7,6.8,5.7c0.1,0.1,0.2,0.2,0.3,0.3
		c1,0.9,2,1.8,3,2.7c0.3,0.3,0.6,0.6,0.9,0.8c0.8,0.7,1.6,1.5,2.4,2.3c0.4,0.3,0.7,0.7,1.1,1c0.7,0.7,1.5,1.5,2.2,2.2
		c0.4,0.4,0.7,0.7,1.1,1.1c0.7,0.8,1.5,1.6,2.2,2.3c0.3,0.4,0.7,0.7,1,1.1c0.8,0.9,1.6,1.8,2.5,2.8c0.2,0.3,0.5,0.5,0.7,0.8
		c1.1,1.2,2.1,2.5,3.1,3.7c0.1,0.1,0.2,0.3,0.3,0.4c0.9,1.1,1.7,2.2,2.6,3.3c0,0,0,0,0,0c2.6,3.4,5,6.9,7.4,10.6
		c-1.2-1.8-2.4-3.6-3.6-5.4c0.1,0.1,0.1,0.2,0.2,0.3c0.6,0.9,1.2,1.7,1.8,2.6c0.4,0.5,0.7,1.1,1.1,1.6c0.6,0.9,1.1,1.8,1.7,2.7
		c0.3,0.6,0.7,1.1,1,1.7c0.6,1,1.2,2,1.8,3c0.3,0.5,0.6,1,0.8,1.5c0.8,1.5,1.7,3.1,2.5,4.7c0.6,1.2,1.2,2.4,1.8,3.5
		c0.2,0.3,0.3,0.7,0.5,1c0.4,0.9,0.9,1.8,1.3,2.6c0.1,0.3,0.3,0.6,0.4,0.9c0.5,1.1,1,2.2,1.5,3.3c0.1,0.2,0.2,0.4,0.3,0.6
		c0.4,0.9,0.8,1.8,1.2,2.7c0.1,0.3,0.3,0.6,0.4,0.9c0.4,0.9,0.8,1.8,1.1,2.6c0.1,0.2,0.2,0.4,0.2,0.6c0.4,1,0.8,2.1,1.2,3.1
		c0.1,0.3,0.2,0.5,0.3,0.8c0,0.1,0.1,0.2,0.1,0.3c0,0,0,0,0,0c0,0,0,0.1,0,0.1c0.2,0.7,0.5,1.3,0.7,2c0.1,0.3,0.2,0.6,0.3,0.9
		c0.7,2.1,1.4,4.2,2.1,6.3c0.1,0.3,0.2,0.6,0.3,0.9c0.2,0.8,0.5,1.7,0.7,2.5c0.1,0.3,0.2,0.5,0.2,0.8c0.3,1.1,0.6,2.2,0.8,3.3
		c0,0.2,0.1,0.4,0.1,0.6c0.2,0.9,0.4,1.9,0.6,2.8c0.1,0.3,0.1,0.7,0.2,1c0.2,1,0.4,1.9,0.6,2.9c0,0.2,0.1,0.4,0.1,0.7
		c0.2,1.2,0.4,2.4,0.6,3.7c0.1,0.3,0.1,0.7,0.2,1c0.2,1,0.3,2,0.5,3c0.1,0.4,0.1,0.8,0.2,1.1c0.2,1.3,0.4,2.7,0.5,4.1
		c0.1,1.1,0.3,2.2,0.4,3.3c0.2,1.6,0.4,3.4,0.5,5.1c0.1,0.6,0.1,1.1,0.2,1.7c0.1,0.6,0.1,1.2,0.2,1.7c0.1,0.6,0.1,1.2,0.2,1.8
		c0,0.6,0.1,1.1,0.1,1.7c0.1,1,0.2,2.1,0.2,3.1c0,0.5,0.1,1,0.1,1.5c0.1,0.9,0.1,1.7,0.2,2.6c0,0.5,0.1,1,0.1,1.5
		c0.1,0.9,0.1,1.8,0.2,2.7c0,0.5,0.1,0.9,0.1,1.4c0.1,1.4,0.2,2.7,0.2,4.2c0.2,3.2,0.3,6.5,0.5,10c0.1,1.4,0.1,2.8,0.2,4.1
		c0,0.3,0,0.6,0,0.9c0.1,1,0.1,2.1,0.2,3.1c0,0.3,0,0.6,0,0.9c0.1,1.3,0.1,2.5,0.2,3.7c0.1,1.5,0.2,2.9,0.2,4.3
		c0,0.5,0.1,0.9,0.1,1.4c0.1,0.9,0.1,1.9,0.2,2.8c0,0.5,0.1,0.9,0.1,1.4c0.1,0.9,0.1,1.8,0.2,2.7c0,0.4,0.1,0.8,0.1,1.1
		c0.1,1.2,0.2,2.4,0.3,3.6c0,0.5,0,1-0.1,1.4c0,0.1,0,0.2-0.1,0.3c-0.1,0.4-0.2,0.8-0.3,1.2c0,0,0,0.1,0,0.1c-0.4,1-0.9,1.8-1.7,2.6
		c-0.4,0.4-0.8,0.8-1.3,1.1c-0.3,0.2-0.7,0.4-1,0.6l-7.1,3.3c50.6,11.2,105.6-3.7,143.8-44.1c55.8-59.1,55.3-151,0.2-209.3
		c2.2,1.9,4.4,3.8,6.6,5.9c61.2,57.9,63.9,154.4,6,215.6c-44.2,46.7-110.9,59.3-167.2,36.9l-0.7,0.3l-9.8,4.5l-0.4,0.2l-10,4.7
		c53.2,26.6,117.4,23.3,167.7-9.2h6.6l-0.9-3.9c0.5-0.3,1-0.7,1.5-1c8.4-6,16.3-12.9,23.7-20.7c0.1-0.1,0.2-0.2,0.3-0.3
		c8.7-9.2,16.1-19.1,22.3-29.5c8.4-14,14.6-29,18.5-44.3c1.8-6.8,3.1-13.7,4-20.7c0,0,0,0,0,0l0,0c0,0,0,0,0,0
		C759.1,712.1,759.6,704.8,759.6,697.5z M518.9,667C518.9,667,518.9,667,518.9,667c0.4,0.5,0.7,0.9,1,1.3c0.7,0.9,1.3,1.8,2,2.7
		c0.2,0.3,0.5,0.7,0.7,1.1C521.4,670.3,520.2,668.6,518.9,667z M636.6,688.9c-10.5,11.1-28,11.6-39.1,1.1
		c-11.1-10.5-11.6-28-1.1-39.1c10.5-11.1,28-11.6,39.1-1.1C646.6,660.3,647.1,677.8,636.6,688.9z M650.5,618.5
		c-7.8,8.3-20.9,8.6-29.1,0.8c-8.3-7.8-8.6-20.9-0.8-29.1c7.8-8.3,20.9-8.6,29.1-0.8C657.9,597.2,658.3,610.3,650.5,618.5z
		 M695,632.3c8.3,7.8,8.6,20.9,0.8,29.1c-7.8,8.3-20.9,8.6-29.1,0.8c-8.3-7.8-8.6-20.9-0.8-29.1C673.7,624.8,686.7,624.5,695,632.3z
		"/>
</g>
</svg>
