<?xml version="1.0" encoding="utf-8"?>
<!-- Generator: Adobe Illustrator 22.0.0, SVG Export Plug-In . SVG Version: 6.00 Build 0)  -->
<svg version="1.1" id="Layer_1" xmlns="http://www.w3.org/2000/svg" xmlns:xlink="http://www.w3.org/1999/xlink" x="0px" y="0px"
	 viewBox="0 0 1133.9 1133.9" style="enable-background:new 0 0 1133.9 1133.9;" xml:space="preserve">
<style type="text/css">
	.st0{fill:none;}
	.st1{fill:#ffffff;}
	.st2{fill:#010101;}
</style>
<g id="XMLID_14_">
	<g id="XMLID_8_">
		<path class="st1" id="XMLID_11_" d="M611.7,501.1c-2.5-7.6-4.4-15.5-5.6-23.9h-78.3c-1.2,8.4-3.1,16.3-5.6,23.9H611.7z"/>
		<path class="st1" id="XMLID_10_" d="M529,455.5h75.8c0.1-4.8,0.5-9.7,1.1-14.9c9.7-80.9,29.6-173.5-39-173.5c-68.5,0-48.7,92.6-39,173.5
			C528.6,445.8,528.9,450.7,529,455.5z"/>
		<path class="st1" id="XMLID_9_" d="M667.3,637.5c-8.5-50.6-31.3-81.6-46.8-114.7H513.4c-15.6,33.1-38.3,64.1-46.8,114.7
			c-12.2,72.2,26.3,176.8,39.5,209.9c2.7,6.8,8.6,11.9,15.7,13.8c29.6,7.7,59.8,7.4,90.5-0.3c7.1-1.8,12.9-7,15.6-13.8
			C641.2,813.8,679.5,709.5,667.3,637.5z"/>
	</g>
	<g id="XMLID_12_">
		<g id="XMLID_13_">
			<path class="st1" id="XMLID_16_" d="M407.6,509.1c-6-5.3-11.6-11.2-16.8-17.9l-67.8,39.1c3.2,7.9,5.5,15.7,7.1,23.5L407.6,509.1z"/>
			<path class="st1" id="XMLID_15_" d="M313.2,510.9l65.7-37.9c-2.3-4.2-4.5-8.7-6.5-13.5c-32-74.9-61.1-165.1-120.5-130.8
				c-59.3,34.2,4.1,104.6,52.9,169.8C307.9,502.7,310.7,506.9,313.2,510.9z"/>
		</g>
		<path class="st1" id="XMLID_18_" d="M483.4,856.5c-16.6-41.5-53.9-146.3-41-223c5.6-33.5,16.8-59,28.2-81.2c-15.5-10.4-30.6-18.9-44.6-28.7
			l-92.8,53.5c3,36.5-1.1,74.7,16.7,122.7c24.1,64.8,101.8,132,133.9,157.9C483.7,857.3,483.5,856.9,483.4,856.5z"/>
	</g>
	<g id="XMLID_17_">
		<g id="XMLID_20_">
			<path class="st1" id="XMLID_22_" d="M726.3,509.1c6-5.3,11.6-11.2,16.8-17.9l67.8,39.1c-3.2,7.9-5.5,15.7-7.1,23.5L726.3,509.1z"/>
			<path class="st1" id="XMLID_21_" d="M820.7,510.9L755,473.1c2.3-4.2,4.5-8.7,6.5-13.5c32-74.9,61.1-165.1,120.5-130.8
				c59.3,34.2-4.1,104.6-52.9,169.8C826,502.7,823.2,506.9,820.7,510.9z"/>
		</g>
		<path class="st1" id="XMLID_19_" d="M650.5,856.5c16.6-41.5,53.9-146.3,41-223c-5.6-33.5-16.8-59-28.2-81.2c15.5-10.4,30.6-18.9,44.6-28.7
			l92.8,53.5c-3,36.5,1.1,74.7-16.7,122.7c-24.1,64.8-101.8,132-133.9,157.9C650.2,857.3,650.3,856.9,650.5,856.5z"/>
	</g>
</g>
</svg>
